<mxfile host="65bd71144e">
    <diagram id="13KrDURhAcvKxaBtcAPQ" name="PAP_1">
        <mxGraphModel dx="969" dy="440" grid="1" gridSize="10" guides="1" tooltips="1" connect="1" arrows="1" fold="1" page="1" pageScale="1" pageWidth="827" pageHeight="1169" math="0" shadow="0">
            <root>
                <mxCell id="0"/>
                <mxCell id="1" parent="0"/>
                <mxCell id="9" value="" style="edgeStyle=none;html=1;" edge="1" parent="1" source="5" target="7">
                    <mxGeometry relative="1" as="geometry"/>
                </mxCell>
                <mxCell id="5" value="Start" style="rounded=1;whiteSpace=wrap;html=1;" vertex="1" parent="1">
                    <mxGeometry x="240" y="120" width="160" height="40" as="geometry"/>
                </mxCell>
                <mxCell id="6" value="Stop" style="rounded=1;whiteSpace=wrap;html=1;" vertex="1" parent="1">
                    <mxGeometry x="240" y="480" width="160" height="40" as="geometry"/>
                </mxCell>
                <mxCell id="10" value="" style="edgeStyle=none;html=1;" edge="1" parent="1" source="7" target="8">
                    <mxGeometry relative="1" as="geometry"/>
                </mxCell>
                <mxCell id="7" value="firstName&amp;nbsp; = &quot;Max&quot;" style="rounded=0;whiteSpace=wrap;html=1;" vertex="1" parent="1">
                    <mxGeometry x="240" y="230" width="160" height="60" as="geometry"/>
                </mxCell>
                <mxCell id="11" value="" style="edgeStyle=none;html=1;" edge="1" parent="1" source="8" target="6">
                    <mxGeometry relative="1" as="geometry"/>
                </mxCell>
                <mxCell id="8" value="Ausgabe firstName&amp;nbsp;&amp;nbsp;" style="shape=parallelogram;perimeter=parallelogramPerimeter;whiteSpace=wrap;html=1;fixedSize=1;" vertex="1" parent="1">
                    <mxGeometry x="240" y="350" width="160" height="60" as="geometry"/>
                </mxCell>
            </root>
        </mxGraphModel>
    </diagram>
    <diagram name="PAP_2" id="oYjDIDJ4NqXHjovaOew1">
        <mxGraphModel dx="568" dy="352" grid="1" gridSize="10" guides="1" tooltips="1" connect="1" arrows="1" fold="1" page="1" pageScale="1" pageWidth="827" pageHeight="1169" math="0" shadow="0">
            <root>
                <mxCell id="jNSkvzpnAOWcS6IeOC1Y-0"/>
                <mxCell id="jNSkvzpnAOWcS6IeOC1Y-1" parent="jNSkvzpnAOWcS6IeOC1Y-0"/>
                <mxCell id="jNSkvzpnAOWcS6IeOC1Y-2" value="" style="edgeStyle=none;html=1;" edge="1" parent="jNSkvzpnAOWcS6IeOC1Y-1" source="jNSkvzpnAOWcS6IeOC1Y-3" target="jNSkvzpnAOWcS6IeOC1Y-6">
                    <mxGeometry relative="1" as="geometry"/>
                </mxCell>
                <mxCell id="jNSkvzpnAOWcS6IeOC1Y-3" value="Start" style="rounded=1;whiteSpace=wrap;html=1;" vertex="1" parent="jNSkvzpnAOWcS6IeOC1Y-1">
                    <mxGeometry x="240" y="120" width="160" height="40" as="geometry"/>
                </mxCell>
                <mxCell id="jNSkvzpnAOWcS6IeOC1Y-4" value="Stop" style="rounded=1;whiteSpace=wrap;html=1;" vertex="1" parent="jNSkvzpnAOWcS6IeOC1Y-1">
                    <mxGeometry x="240" y="480" width="160" height="40" as="geometry"/>
                </mxCell>
                <mxCell id="jNSkvzpnAOWcS6IeOC1Y-5" value="" style="edgeStyle=none;html=1;" edge="1" parent="jNSkvzpnAOWcS6IeOC1Y-1" source="jNSkvzpnAOWcS6IeOC1Y-6" target="jNSkvzpnAOWcS6IeOC1Y-8">
                    <mxGeometry relative="1" as="geometry"/>
                </mxCell>
                <mxCell id="jNSkvzpnAOWcS6IeOC1Y-6" value="firstName&amp;nbsp; = &quot;Max&quot;" style="rounded=0;whiteSpace=wrap;html=1;" vertex="1" parent="jNSkvzpnAOWcS6IeOC1Y-1">
                    <mxGeometry x="240" y="230" width="160" height="60" as="geometry"/>
                </mxCell>
                <mxCell id="jNSkvzpnAOWcS6IeOC1Y-7" value="" style="edgeStyle=none;html=1;" edge="1" parent="jNSkvzpnAOWcS6IeOC1Y-1" source="jNSkvzpnAOWcS6IeOC1Y-8" target="jNSkvzpnAOWcS6IeOC1Y-4">
                    <mxGeometry relative="1" as="geometry"/>
                </mxCell>
                <mxCell id="jNSkvzpnAOWcS6IeOC1Y-8" value="Ausgabe firstName&amp;nbsp;&amp;nbsp;" style="shape=parallelogram;perimeter=parallelogramPerimeter;whiteSpace=wrap;html=1;fixedSize=1;" vertex="1" parent="jNSkvzpnAOWcS6IeOC1Y-1">
                    <mxGeometry x="240" y="350" width="160" height="60" as="geometry"/>
                </mxCell>
            </root>
        </mxGraphModel>
    </diagram>
</mxfile>